<?xml version="1.0" encoding="UTF-8"?>
<svg xmlns="http://www.w3.org/2000/svg" viewBox="0 0 512 512" role="img" aria-label="BangkitCell">
  <defs>
    <linearGradient id="bg" x1="64" y1="64" x2="448" y2="448" gradientUnits="userSpaceOnUse">
      <stop offset="0" stop-color="#0ea5e9"/>
      <stop offset="1" stop-color="#0f172a"/>
    </linearGradient>
    <linearGradient id="shine" x1="160" y1="120" x2="352" y2="392" gradientUnits="userSpaceOnUse">
      <stop offset="0" stop-color="#ffffff" stop-opacity="0.20"/>
      <stop offset="1" stop-color="#ffffff" stop-opacity="0.04"/>
    </linearGradient>
    <filter id="shadow" x="-20%" y="-20%" width="140%" height="140%">
      <feDropShadow dx="0" dy="16" stdDeviation="18" flood-opacity="0.25"/>
    </filter>
  </defs>

  <rect x="40" y="40" width="432" height="432" rx="96" fill="url(#bg)" filter="url(#shadow)"/>
  <path d="M94 180c40-78 126-120 220-108 42 6 78 24 108 54v240c0 30-24 54-54 54H144c-30 0-54-24-54-54V180z" fill="url(#shine)"/>

  <!-- Phone -->
  <rect x="164" y="112" width="184" height="288" rx="44" fill="none" stroke="#ffffff" stroke-width="18" stroke-linejoin="round"/>
  <circle cx="256" cy="150" r="10" fill="#ffffff" opacity="0.92"/>
  <circle cx="256" cy="372" r="11" fill="#ffffff" opacity="0.92"/>

  <!-- Lightning -->
  <path
    d="M278 176 214 276h52l-18 120 82-132h-52l18-88z"
    fill="#fbbf24"
  />
</svg>

